<?xml version="1.0" encoding="UTF-8"?>
<!DOCTYPE svg PUBLIC "-//W3C//DTD SVG 1.1//EN" "http://www.w3.org/Graphics/SVG/1.1/DTD/svg11.dtd">
<!-- Creator: CorelDRAW -->
<svg xmlns="http://www.w3.org/2000/svg" xml:space="preserve" width="4.563in" height="3.20422in" version="1.1" style="shape-rendering:geometricPrecision; text-rendering:geometricPrecision; image-rendering:optimizeQuality; fill-rule:evenodd; clip-rule:evenodd"
viewBox="0 0 4457.78 3130.33"
 xmlns:xlink="http://www.w3.org/1999/xlink"
 xmlns:xodm="http://www.corel.com/coreldraw/odm/2003">
 <defs>
  <style type="text/css">
   <![CDATA[
    .str0 {stroke:#FFFFFF;stroke-width:13.57;stroke-miterlimit:2.61313}
    .fil0 {fill:#FFFFFF}
    .fil1 {fill:#FFFFFF;fill-rule:nonzero}
   ]]>
  </style>
 </defs>
 <g id="Camada_x0020_1">
  <metadata id="CorelCorpID_0Corel-Layer"/>
  <g id="_2240024626576">
   <g>
    <path class="fil0" d="M2591.39 1128.07l24.14 32.3 -23.19 30.54c-23.06,-13.43 -17.88,-10.81 -40.32,-31.72 13.42,-12.98 24.98,-21.57 39.37,-31.12zm-715.2 -0.88c13.53,9.77 26.25,20.12 39.63,32l-39.52 31.7 -22.81 -31.7c8.07,-13.45 12.79,-18.8 22.7,-32zm865.93 -132.23c9.77,-10.65 12.03,-16.61 21.2,-27.42 24.35,37.11 10.52,31.93 52.07,48.87 -23.55,28.67 -27.24,22.16 -46.56,55.8l-59.59 -42.85c11.08,-15.66 3.47,-5.83 16.43,-19.21 0.42,-0.43 11.3,-9.59 16.45,-15.19zm-1015.24 -0.13c7.1,7.11 14.48,14.82 22.34,21.87 -8.56,18.8 -29.56,47.2 -44.4,66.84 -36.65,-66.04 -24.27,-26.07 -49.32,-66.84 25.99,-15.17 32.89,-24.79 49.32,-43.06l11.62 10.39c1.93,1.87 8.37,8.72 10.44,10.8zm897.94 542.92c-152.1,-2.56 -265.02,-115.28 -255.92,-266.2 7.12,-118.26 135.46,-264.29 212.1,-296.73 -20.1,38.1 -379.69,388.27 56.95,393.69 -74.67,48.6 -121.24,29.12 -203.27,2.66 9.13,50.17 40.05,74.91 76.9,100.96l106.53 60.45c1.17,-2.04 4.6,3.29 6.71,5.17zm-779.65 -166.61c405.4,-27.24 68.9,-341.68 41.61,-395.91 75.58,33.78 205.46,173.92 210.97,305.74 6.13,146.64 -107.69,252.66 -255.23,257.12 10.67,-10.25 2.77,-4.27 20.09,-15.48 9.24,-5.98 148.18,-60.59 170.5,-151.25 -42.02,11.97 -93.65,38.77 -153.21,20.84l-34.73 -21.05zm-390.1 -838.88c21.04,-15.55 -0.92,-9.71 31.81,-9.98 41.87,-0.35 614.45,240.28 638.5,587.5 -24.08,-15.9 -14.09,-8.39 -35.31,-30.99 -251.36,-267.74 -381.13,-244.24 -515.87,-326.7 82.01,-30.77 353.9,130.72 390.45,144.86 -37.73,-105.01 -370.93,-315.78 -509.58,-364.68zm882.5 584.67c9.88,-378.83 711.98,-649.1 765.93,-629.48 -224.86,92.79 -553.44,285.68 -642.03,454.04 67.61,-78.92 282.31,-179.54 415.87,-190.49 -41.59,37.41 -238.69,80.27 -430.88,254.14 -38.33,34.68 -71.46,80.69 -108.89,111.79zm-990.8 744.59c-42.65,136.09 -101.85,164.19 -209.13,231.99 76.24,16.01 177.19,-1.54 248.82,-20.38 216.44,-56.91 252.86,-323.86 420.7,-402.7 -20.7,34.4 -55.13,62.62 -84.98,106.66 -63.8,94.14 -182.83,313.47 -129.32,430.51l9.04 -10.11c0.76,-1.22 3.13,-4.27 4.01,-5.85 15.02,-26.58 12.85,-43.89 47.56,-96.43 108.25,-163.9 318.89,-273.1 454.45,-431.17 103.61,-120.81 88.22,-169.44 126.15,-226.32 39.17,61.86 28.44,128.41 152.75,260.79 65.85,70.13 196.05,159.1 222.82,198.37 18.18,3.67 10.13,-1.49 26.03,11.23 19.77,15.82 15.3,19.18 19.26,27.62 125.96,59.56 181.07,226.18 217.76,280.5 55.17,-197.14 -139.94,-482.64 -227.15,-554.41 107.72,44.8 183.25,197.08 260.5,290.99 102.25,124.29 252,162.33 418.99,143.31 -84.01,-67.75 -106.99,-51.03 -170.8,-157.86 -74.11,-124.1 -160.95,-457.48 -389.52,-502.26l-61.54 -22.36c130.31,-53.64 276.02,-56.26 415.82,-89.61 136.08,-32.46 272.45,-109.98 311.94,-200.62l-545.89 78.51c-65.59,9.58 -109.62,31.53 -170.48,36.69 220.23,-146.86 551.48,-85.34 865.08,-260.15 54.05,-30.13 170.32,-119.5 189.22,-182.43 -209.82,84.54 -344.64,85.67 -567.23,122.28 -65.36,10.75 -134.26,32.74 -198.57,40.12 27.42,-33.44 89.59,-49.73 128.99,-62.35 55.86,-17.9 92.34,-26.71 155.05,-39.94 205.02,-43.27 404.64,-55.01 553.68,-197.05 51.61,-49.19 132.99,-150.98 145.93,-234.11 -119.63,39.43 -103.69,70.22 -373.23,139.87l-397.71 102.5c255.32,-190.42 882.65,-180.84 828.33,-666.98 -33.35,17.03 -99.42,139.54 -374.78,242 -357.34,132.98 -780.96,156.29 -1144,424.44 -56.74,41.92 -132.8,121.02 -174.18,145.37 -6.45,27.22 0.29,7.31 -15.43,31.35 -4.22,6.45 -10.88,14.36 -17.22,23.37 -54.4,77.37 -55.03,109.3 -84.44,156.66 -42.15,-56.26 -22.41,-84.61 -134.58,-218.34 -141.03,-168.14 -457.52,-319.64 -681.85,-388.1 -266.4,-81.3 -562.04,-118.79 -804.6,-261.88 -125.8,-74.21 -160.9,-139.22 -189.02,-155.24 -51.45,432.48 463.95,485.48 745.26,616.58 46.14,21.5 38.25,22.4 50.5,37.9 -88.96,-8.55 -294.7,-67.46 -390.81,-95.72 -255.8,-75.2 -235.02,-94.82 -347.27,-133.54 11.54,84.51 96.37,187.28 139.52,229.82 210.28,207.32 534.36,145.14 810.54,280.24 -14.78,11.45 7.15,4.45 -22.07,8.65l-354.9 -55.18c-185.65,-21.32 -217.46,-50.71 -349.86,-86.43 41.05,132.44 287.85,239.45 465.14,282.07 230.69,55.45 383.56,42.95 581.93,153.4 -57.61,-2.24 -111.37,-25.84 -168.73,-35.83 -186.27,-32.46 -334.59,-39.83 -546.35,-78.67 36.38,88.3 180.45,171.59 309.01,201.26 75.12,17.34 141.88,25.17 216.81,37.77 89.3,15.01 126.79,28.64 205.42,52.2l-47.2 18.46c-48.42,11.17 -62.73,7.37 -115.92,43.84 -173.96,119.29 -220.62,346.09 -258.28,384.7z"/>
    <path class="fil0" d="M2292.92 674.42c24.7,-48.34 56.32,-47.54 125.66,-64.27 -17.48,-13.52 -36.96,-10.88 -54.57,-33.77 -96.43,8.42 -93.41,-96.33 -129.92,-166.02 -57.47,110.97 13.72,119.4 -149.13,181.22 -3.13,1.19 -12.34,4.77 -15.2,6.18 -16.33,8.03 -9.9,3.73 -20.73,13.35 144.77,25.22 139.87,70.74 172.55,143.53 13.06,29.1 3.55,10.55 12.51,23.14l25.45 -63.49c2.87,-7.03 8.76,-19.33 13.35,-24.87 13.82,-16.64 4.68,-9.42 20.03,-15z"/>
   </g>
   <path class="fil1 str0" d="M235.48 1456.67c-19.78,-10.58 -35.08,-23.29 -45.88,-38.09 -10.8,-14.81 -17.57,-30.55 -20.31,-47.22 -2.74,-16.67 -1.69,-33.75 3.16,-51.22 4.85,-17.48 13.23,-34.22 25.16,-50.21 -10.55,10.86 -20.47,22.62 -29.73,35.28 -9.27,12.66 -17.27,25.39 -24.02,38.19 -6.75,12.8 -11.83,25.62 -15.24,38.45 -3.42,12.83 -4.32,25.07 -2.69,36.7 1.89,13.57 5.17,25.97 9.86,37.18 4.68,11.2 11.47,20.39 20.38,27.55 -5.72,9.7 -13.98,16.9 -24.77,21.62 -10.78,4.71 -21.84,6.01 -33.16,3.88 -11.33,-2.13 -21.68,-8.48 -31.05,-19.03 -9.38,-10.55 -15.52,-26.26 -18.42,-47.11 -0.95,-6.78 -0.97,-14.44 -0.08,-22.97 1.65,-18.02 7.03,-35.45 16.12,-52.29 9.1,-16.83 20.63,-32.65 34.59,-47.45 13.96,-14.8 29.34,-28.42 46.12,-40.89 16.78,-12.47 33.42,-23.69 49.93,-33.65 16.51,-9.96 32.1,-18.31 46.77,-25.05 14.66,-6.74 26.76,-11.76 36.29,-15.07l-225.35 31.39c-6.53,0.91 -11.67,4.34 -15.42,10.3 -3.75,5.96 -5.08,12.82 -4,20.57l2.33 16.73 -6.12 0.85 -22.29 -160.01 6.13 -0.85 2.33 16.73c1.01,7.27 4.02,13.16 9.01,17.65 5,4.49 10.79,6.53 17.4,6.1l0.61 -0.08 368.65 -51.34 0.61 -0.08c2.45,-0.34 4.26,-0.84 5.42,-1.5 4.7,-2.13 8.34,-5.86 10.93,-11.16 2.59,-5.3 3.44,-11.11 2.57,-17.41l-2.33 -16.73 6.12 -0.85 24.72 177.46c1.56,5.22 3.51,11.01 5.85,17.35 2.34,6.35 3.88,12.18 4.62,17.52 4.12,29.58 3.52,55.86 -1.82,78.84 -5.33,22.99 -13.92,42.72 -25.78,59.2 -11.85,16.47 -26.27,29.48 -43.26,39.01 -16.98,9.53 -34.8,16.09 -53.44,19.67 -18.65,3.58 -37.44,3.85 -56.38,0.81 -18.94,-3.05 -36.5,-8.88 -52.69,-17.5l-1.43 -1.29zm69.35 -250.61c-18.65,6.55 -35.66,15.1 -51.05,25.65 -15.39,10.55 -28.65,22.15 -39.79,34.83 -11.13,12.67 -19.48,25.94 -25.04,39.81 -5.56,13.87 -7.43,27.36 -5.6,40.45 1.82,13.09 6.9,24.12 15.22,33.1 8.33,8.98 19.12,15.5 32.38,19.59 13.26,4.08 28.28,5.82 45.05,5.22 16.77,-0.61 34.48,-4.18 53.13,-10.74 18.23,-6.49 35.15,-15.03 50.74,-25.6 15.59,-10.58 28.95,-22.2 40.09,-34.87 11.13,-12.67 19.48,-25.94 25.04,-39.82 5.56,-13.87 7.43,-27.35 5.6,-40.45 -2.43,-20.42 -12.99,-35.75 -31.69,-46 -18.7,-10.25 -41.38,-14.01 -68.05,-11.28 -8.23,0.65 -15.89,1.71 -22.97,3.2 -7.08,1.48 -14.56,3.76 -22.45,6.83l-0.62 0.08zm-17.12 671.49l2.81 7.57 -90.67 25.79 -120.26 -324.29 5.8 -2.15 5.87 15.83c2.73,7.35 7.15,12.76 13.27,16.23 6.12,3.47 12.28,4.06 18.46,1.77l348.98 -129.41c6.18,-2.29 10.46,-6.75 12.84,-13.38 2.38,-6.63 2.21,-13.61 -0.52,-20.96l-5.87 -15.83 5.8 -2.15 111.32 300.19 -84.28 43.01 -2.81 -7.58 0.91 -1.12c10.45,-8.58 19.21,-18.74 26.27,-30.5 7.07,-11.76 12.14,-24.47 15.2,-38.14 3.07,-13.67 4.06,-27.87 2.99,-42.62 -1.07,-14.75 -4.42,-29.69 -10.03,-44.84l-14.81 -39.94 -0.26 -0.68 -0.25 -0.69 -0.26 -0.69 -0.25 -0.69 -0.26 -0.69 -0.25 -0.69 -0.26 -0.69 -0.25 -0.69 -0.25 -0.69 -0.26 -0.69 -0.25 -0.69 -0.26 -0.69 -0.25 -0.69 -0.26 -0.69 -0.25 -0.69 -0.26 -0.69 -0.25 -0.69 -0.26 -0.69 -0.25 -0.69 -0.26 -0.69 -0.25 -0.68 -0.77 -2.07 -0.83 -0.47 -0.83 -0.47 -0.84 -0.48 -0.83 -0.47 -0.83 -0.47 -0.83 -0.48 -0.83 -0.47 -0.83 -0.47 -0.84 -0.47 -0.83 -0.47 -0.83 -0.48 -0.84 -0.47 -0.83 -0.47 -0.83 -0.48 -0.83 -0.47 -0.84 -0.47 -0.83 -0.47 -0.58 0.22 -1.16 0.43 -0.58 0.22 -0.58 0.22 -0.58 0.22 -0.58 0.22 -0.58 0.22 -0.58 0.21 -0.58 0.22 -0.58 0.22 -0.58 0.22 -0.58 0.22 -0.58 0.22 -0.58 0.22 -0.58 0.22 -0.58 0.21 -0.58 0.22 -0.58 0.22 -0.58 0.22 -0.58 0.22 -0.58 0.22 -0.58 0.22 -0.58 0.22 -146.66 54.39 18.38 49.57c3.75,10.1 8.78,18.93 15.11,26.51 6.33,7.57 13.48,13.53 21.47,17.88 7.99,4.35 16.38,7.11 25.17,8.29 8.79,1.18 17.44,0.19 25.94,-2.97l0.58 -0.21 3.06 8.26 -128.11 47.51 -3.07 -8.26 0.58 -0.22c8.5,-3.15 15.7,-8.04 21.6,-14.67 5.9,-6.62 10.36,-14.15 13.38,-22.59 3.03,-8.43 4.57,-17.62 4.62,-27.56 0.05,-9.94 -1.8,-19.96 -5.55,-30.06l-18.38 -49.57 -196.51 72.87c-6.18,2.29 -10.47,6.75 -12.85,13.38 -2.38,6.63 -2.21,13.61 0.52,20.95l18.13 48.88c5.62,15.15 13.08,29.35 22.39,42.6 9.32,13.25 19.84,24.75 31.59,34.49 11.75,9.74 24.25,17.38 37.51,22.9 13.26,5.52 26.84,8.06 40.74,7.61l3.34 1.89zm201.11 330.09l4.31 6.83 -83.42 43.89 -177.73 -282.05 5.22 -3.29 9 14.28c4.18,6.63 9.62,11.01 16.33,13.15 6.71,2.14 12.85,1.45 18.43,-2.07l314.89 -198.43c5.58,-3.52 8.86,-8.76 9.82,-15.73 0.97,-6.98 -0.64,-13.77 -4.81,-20.4l-9 -14.29 5.23 -3.3 86.52 137.29 -5.23 3.3 -9 -14.29c-4.18,-6.63 -9.62,-11.01 -16.32,-13.15 -6.7,-2.14 -12.85,-1.45 -18.43,2.07l-314.89 198.43c-5.58,3.52 -8.85,8.76 -9.82,15.73 -0.96,6.97 0.64,13.77 4.82,20.4l27.8 44.11c8.61,13.67 18.45,25.4 29.51,35.22 11.05,9.81 22.94,17.66 35.65,23.54 12.72,5.87 25.8,9.63 39.26,11.28 13.46,1.64 26.94,0.81 40.45,-2.49l1.44 -0.03zm50.57 151.3c-5,4.3 -7.45,9.98 -7.37,17.02 0.08,7.04 2.67,13.52 7.78,19.46l11.02 12.8 -4.68 4.03 -105.91 -122.96 4.69 -4.03 11.02 12.8c5.12,5.93 11.14,9.46 18.09,10.58 6.95,1.12 12.92,-0.47 17.92,-4.78l282.02 -242.89c5,-4.3 7.46,-9.98 7.38,-17.02 -0.08,-7.04 -2.68,-13.52 -7.79,-19.46l-11.02 -12.8 4.68 -4.03 105.9 122.96 -4.68 4.03 -11.02 -12.8c-5.11,-5.93 -11.15,-9.46 -18.09,-10.58 -6.95,-1.12 -12.93,0.47 -17.93,4.77l-282.02 242.89zm289.8 -351.34l70.55 -35.57 39.78 46.18 -86.37 17.2 -23.96 -27.82zm163.34 229.11c18.83,16.38 32.96,36.33 42.37,59.81 9.42,23.49 14.02,48.39 13.83,74.72 -0.19,26.33 -5.2,52.97 -15.03,79.93 -9.83,26.96 -24.76,51.95 -44.78,74.96 -26.52,30.48 -57.12,52.61 -91.82,66.4 -34.71,13.79 -68.76,18.99 -102.16,15.62 -15.08,-0.56 -31.56,-2.32 -49.42,-5.29 -17.85,-2.97 -35.29,-4.75 -52.29,-5.34 7.33,2.01 14.21,4.17 20.64,6.48 6.42,2.31 12.9,4.94 19.42,7.88 24.25,10.17 42.96,21.67 56.13,34.49 13.17,12.82 22.17,25.43 26.97,37.8 4.81,12.37 5.81,23.9 3.01,34.58 -2.8,10.68 -8,19.27 -15.6,25.76 -7.6,6.5 -16.99,10.21 -28.18,11.13 -11.18,0.92 -22.94,-2.34 -35.27,-9.8 9.56,-18.45 11.03,-35.61 4.4,-51.49 -6.63,-15.87 -18.13,-30.25 -34.5,-43.13 -16.38,-12.88 -35.84,-24.07 -58.39,-33.58 -22.55,-9.51 -44.78,-16.97 -66.68,-22.37l0.22 -4.73 1.62 -14.17c11.98,1.14 26.17,2.55 42.55,4.24 16.38,1.68 32.34,3.28 47.9,4.8 15.55,1.51 29,2.83 40.35,3.96 11.35,1.13 17.84,1.87 19.49,2.21 -12.41,-5.88 -23.79,-13.32 -34.12,-22.31 -18.84,-16.39 -32.96,-36.32 -42.38,-59.81 -9.41,-23.49 -14.02,-48.4 -13.83,-74.72 0.19,-26.33 5.2,-52.98 15.03,-79.94 9.83,-26.96 24.75,-51.95 44.77,-74.96 20.02,-23.01 42.7,-41.25 68.04,-54.72 25.34,-13.47 51.04,-22.12 77.08,-25.95 26.05,-3.84 51.35,-2.72 75.91,3.35 24.57,6.07 46.27,17.3 65.11,33.69l-0.4 0.47zm-223.99 352.56c3.22,2.26 6.99,3.9 11.3,4.91l1.66 1.45c12.28,3.03 25.68,1.99 40.2,-3.13 14.52,-5.13 29.04,-13.8 43.57,-26.02 14.52,-12.22 28.49,-27.52 41.89,-45.91 13.4,-18.39 25.13,-39.33 35.19,-62.82 10.67,-25.69 18.29,-51.42 22.88,-77.21 4.58,-25.79 6.05,-49.65 4.37,-71.59 -1.67,-21.95 -6.08,-40.94 -13.21,-56.98 -7.13,-16.04 -16.82,-27.47 -29.05,-34.29 -12.24,-6.82 -26.15,-8.54 -41.74,-5.17 -15.59,3.38 -31.31,11 -47.17,22.89 -15.85,11.88 -31.27,27.56 -46.26,47.03 -14.99,19.47 -27.82,42.04 -38.49,67.73 -10.93,25.99 -18.63,51.81 -23.09,77.44 -4.45,25.63 -5.83,49.41 -4.16,71.36 1.67,21.94 6.08,40.94 13.21,56.98 7.13,16.04 16.82,27.47 29.05,34.29l-0.15 -0.95zm260.83 209.23c-12.7,-10.29 -24.19,-21.67 -34.48,-34.14 -10.29,-12.46 -18.32,-25.4 -24.09,-38.8 -5.77,-13.4 -8.7,-27.06 -8.79,-40.96 -0.1,-13.9 3.6,-27.25 11.1,-40.06l149.84 -256.17c3.33,-5.69 3.82,-11.85 1.46,-18.49 -2.36,-6.63 -6.92,-11.93 -13.68,-15.88l-14.58 -8.53 3.12 -5.33 140.08 81.94 -3.12 5.33 -14.57 -8.53c-6.77,-3.95 -13.62,-5.33 -20.55,-4.14 -6.93,1.2 -12.07,4.64 -15.4,10.33l-151.09 258.3c-8.74,14.94 -10.9,30.27 -6.48,45.99 4.42,15.72 12.78,30.51 25.08,44.39 12.3,13.88 27.32,25.77 45.06,35.67 17.74,9.9 35.68,16.81 53.81,20.73 18.12,3.92 35.22,3.78 51.3,-0.43 16.07,-4.21 28.48,-13.78 37.22,-28.72l150.15 -256.7c3.33,-5.7 3.82,-11.86 1.46,-18.49 -2.36,-6.63 -6.92,-11.93 -13.68,-15.88l-14.58 -8.53 3.12 -5.33 93.81 54.87 -3.12 5.33 -14.58 -8.53c-6.76,-3.95 -13.61,-5.33 -20.55,-4.14 -6.93,1.19 -12.07,4.63 -15.4,10.33l-150.15 256.7c-11.03,18.85 -26.05,31.2 -45.05,37.04 -19.01,5.83 -39.52,7.21 -61.53,4.12 -22.02,-3.09 -44,-9.62 -65.95,-19.6 -21.96,-9.98 -40.98,-21.58 -57.06,-34.8l1.91 1.11zm371.55 147.53c-2.52,6.1 -2.15,12.27 1.1,18.52 3.24,6.24 8.49,10.86 15.73,13.85l15.61 6.44 -2.36 5.72 -150.02 -61.88 2.36 -5.72 15.62 6.44c7.24,2.98 14.21,3.41 20.92,1.27 6.71,-2.14 11.32,-6.26 13.83,-12.35l141.93 -344.08c2.52,-6.1 2.15,-12.27 -1.1,-18.51 -3.25,-6.24 -8.49,-10.86 -15.73,-13.85l-15.62 -6.44 2.36 -5.72 150.02 61.88 -2.36 5.72 -15.61 -6.44c-7.24,-2.99 -14.22,-3.41 -20.92,-1.27 -6.71,2.14 -11.32,6.25 -13.83,12.35l-141.92 344.08zm401.17 -298.13l0.58 6.54 30.23 404.45c1.6,15.32 6.05,25.95 13.35,31.89 7.31,5.94 16.61,10.58 27.88,13.93l-1.55 5.98 -167.76 -43.47 1.55 -5.98c7.11,1.84 13.75,3.03 19.93,3.57 6.18,0.54 12.37,-1.37 18.55,-5.73 8.02,-5.59 11.75,-13.14 11.18,-22.65l-4.64 -66.99c-13.36,10.59 -27.13,17.35 -41.29,20.28 -14.16,2.93 -27.99,2.65 -41.5,-0.85 -13.51,-3.5 -26.41,-9.82 -38.7,-18.97 -12.29,-9.15 -23.36,-20.1 -33.2,-32.87l-11.52 -17.03 -40.27 61.74c-2.55,4.02 -4.23,8.06 -5.03,12.11 -0.79,4.05 0,8.3 2.39,12.75 2.92,6.29 7.07,10.78 12.45,13.45 5.38,2.67 11.38,4.87 18.02,6.58l-1.55 5.98 -107.34 -27.81 1.55 -5.98c10.53,2.3 20.38,2.3 29.58,0 9.2,-2.3 18.26,-9.96 27.2,-22.98l50.3 -77.02c-8.07,-15.72 -14.64,-33.28 -19.72,-52.69 -5.08,-19.41 -8.36,-39.95 -9.83,-61.62 -1.05,-23.27 0.52,-46.39 4.7,-69.36 4.18,-22.97 10.81,-43.19 19.88,-60.63 9.07,-17.45 20.73,-30.72 34.97,-39.8 14.23,-9.08 30.84,-11.17 49.79,-6.26l149.84 39.46zm-104.92 296.63c11.57,-11.48 20.67,-25.62 27.3,-42.42 6.63,-16.8 11.21,-34.46 13.73,-52.97 2.52,-18.51 3.3,-37.15 2.35,-55.92 -0.95,-18.77 -3.18,-36.05 -6.67,-51.86 -2.42,-12.13 -5.53,-23.57 -9.3,-34.35l-135.54 206.95c6.36,10.59 13.82,19.87 22.37,27.83 8.56,7.97 17.57,13.7 27.02,17.22 9.45,3.52 19.23,4.35 29.32,2.48 10.08,-1.85 19.94,-7.71 29.58,-17.56l-0.15 0.6zm15.77 -262.89c-1.75,-3.01 -3.29,-5.85 -4.62,-8.54 -1.32,-2.68 -2.92,-5.33 -4.77,-7.94 -10.33,-16.73 -21.34,-29.38 -33.03,-37.94 -11.69,-8.56 -23.41,-13.09 -35.17,-13.58 -11.76,-0.49 -23.07,3.18 -33.95,11 -10.88,7.83 -20.43,19.83 -28.67,36 -8.13,15.78 -14.12,33.49 -17.94,53.15 -3.83,19.66 -5.5,39.77 -5.01,60.34 0.48,20.57 2.9,40.99 7.26,61.28 4.35,20.29 10.64,38.95 18.87,55.98l137.19 -210.35 -0.15 0.6zm350.43 27.44c-12.04,-3.31 -24.7,-4.71 -37.99,-4.18 -13.29,0.53 -24.75,3.14 -34.4,7.84 -9.65,4.7 -16,11.39 -19.05,20.06 -3.06,8.67 -0.39,19.7 8.01,33.09 6.17,9.93 15.24,20.79 27.18,32.56 11.94,11.78 25.21,23.85 39.81,36.23 14.6,12.37 29.8,24.9 45.61,37.56 15.81,12.66 30.92,24.66 45.35,35.99 12.56,9.96 24.85,20.21 36.88,30.76 12.02,10.55 22,22.29 29.94,35.23 8.82,14.25 13.18,29.32 13.06,45.22 -0.12,15.9 -7.46,33.26 -22.02,52.08 -1.09,1.57 -3.22,3.9 -6.37,7 -5.8,5.79 -12.05,10.93 -18.74,15.43 -11.37,8.3 -24.83,14.8 -40.37,19.51 -12.03,3.71 -24.73,6.34 -38.09,7.89 -13.35,1.55 -26.65,2.28 -39.9,2.19 -22.07,-0.29 -43.48,-2.81 -64.25,-7.55 -20.8,-4.33 -39.6,-10.91 -56.42,-19.72 -16.8,-8.81 -29.69,-19.41 -38.64,-31.81 -8.96,-12.4 -12.77,-26.4 -11.44,-42.01 1.33,-15.61 9.76,-32.79 25.29,-51.55 11.3,28.05 27.72,51.4 49.24,70.04 21.52,18.64 44.09,32.81 67.71,42.5 23.62,9.7 46.55,15.11 68.8,16.24 22.25,1.13 39.63,-1.8 52.13,-8.78 12.51,-6.98 18.42,-17.93 17.74,-32.85 -0.68,-14.92 -12.03,-33.47 -34.05,-55.66 -24.32,-24.41 -50.21,-47.28 -77.68,-68.61 -27.47,-21.33 -54.42,-43.24 -80.82,-65.73 -11.12,-9.45 -21.01,-19.02 -29.66,-28.71 -8.65,-9.69 -15.06,-19.84 -19.23,-30.46 -3.68,-10.58 -4.76,-21.51 -3.24,-32.77 1.51,-11.26 4.8,-21.46 9.85,-30.61 7.84,-13.92 17.83,-25.31 29.97,-34.17 12.15,-8.87 25.76,-15.78 40.82,-20.72 15.07,-4.94 30.85,-7.87 47.35,-8.8 16.5,-0.92 33.29,-0.58 50.35,1.02 12.18,1.26 24.74,4.2 37.66,8.81 12.93,4.62 24.79,10.6 35.56,17.96 10.78,7.36 20.13,15.75 28.07,25.19 7.93,9.43 13.25,19.41 15.95,29.92 3.43,14.29 0.67,27.42 -8.26,39.4 -8.93,11.98 -21.6,19.68 -38.04,23.08 -1.55,-12.92 -5.07,-25.86 -10.55,-38.85 -5.48,-12.98 -12.64,-24.84 -21.45,-35.57 -8.82,-10.73 -19.33,-20.25 -31.52,-28.53 -12.18,-8.28 -25.73,-14.6 -40.64,-18.93l0.48 3.75zm520.61 360.11c1.06,6.51 4.61,11.57 10.66,15.17 6.05,3.61 13.05,4.77 20.78,3.51l29.11 -4.74c19.38,-3.58 35.84,-12.94 49.6,-28.13 13.65,-15.17 24.38,-33.84 32.3,-56 7.79,-22.15 12.75,-46.55 14.97,-73.23 2.11,-26.65 1.01,-53.2 -3.3,-79.64 -4.25,-26.04 -10.65,-50.89 -19.22,-74.54 -8.57,-23.66 -20.4,-43.77 -35.25,-60.35 -14.86,-16.58 -33.15,-28.42 -54.78,-35.55 -21.5,-7.15 -47.42,-7.2 -77.65,-0.18 -8.08,2.15 -15.03,5.16 -20.61,8.99 -5.58,3.83 -7.7,9.82 -6.37,17.95l59.76 366.75zm-63.61 -394.93c17.6,-5.37 34.61,-9.82 51.26,-13.37 16.54,-3.53 32.95,-5.57 48.98,-6.1 16.15,-0.54 31.9,0.97 47.48,4.48 15.45,3.54 31.21,9.64 47.01,18.34 27.82,15.51 50.17,37.03 67.06,64.56 16.89,27.53 28.23,57.52 34.01,89.99 5,27.59 5.56,55.37 1.68,83.36 -3.88,27.99 -12.18,53.87 -24.92,77.67 -12.74,23.79 -30.37,44.21 -52.89,61.24 -22.52,17.03 -50.21,28.23 -83.06,33.58l-184.09 30 -1 -6.1 16.67 -2.72c7.73,-1.26 13.89,-4.56 18.47,-9.9 4.59,-5.34 6.35,-11.27 5.29,-17.78l-59.86 -367.35c-1.06,-6.51 -4.62,-11.57 -10.66,-15.18 -6.04,-3.6 -12.93,-4.78 -20.66,-3.52l-16.67 2.72 -1 -6.1 115.96 -18.9 0.92 1.1zm444.08 -118.68l4.17 5.07 252.97 317.03c9.95,11.75 19.62,18.02 29,18.81 9.38,0.78 19.68,-0.62 30.87,-4.21l2.09 5.82 -163.06 58.67 -2.09 -5.82c6.91,-2.48 13.07,-5.25 18.47,-8.29 5.41,-3.04 9.44,-8.11 12.09,-15.2 3.48,-9.13 2.3,-17.47 -3.53,-25.01l-41.6 -52.71c-5.07,16.28 -12.62,29.62 -22.67,40.03 -10.04,10.4 -21.63,17.97 -34.76,22.69 -13.12,4.72 -27.34,6.77 -42.65,6.15 -15.32,-0.63 -30.64,-3.44 -45.96,-8.44l-19.11 -7.58 1.54 73.69c0.16,4.77 1.05,9.04 2.67,12.84 1.63,3.8 4.68,6.86 9.16,9.19 5.96,3.55 11.92,4.92 17.86,4.09 5.95,-0.82 12.15,-2.4 18.6,-4.72l2.09 5.82 -104.34 37.54 -2.09 -5.82c10,-4.04 18.14,-9.6 24.44,-16.68 6.3,-7.08 9.47,-18.52 9.51,-34.31l-1.87 -91.97c-15.52,-8.43 -30.85,-19.23 -46,-32.4 -15.14,-13.17 -29.43,-28.29 -42.85,-45.36 -13.98,-18.62 -25.72,-38.6 -35.22,-59.94 -9.5,-21.33 -15.42,-41.76 -17.75,-61.29 -2.35,-19.53 -0.2,-37.05 6.44,-52.59 6.64,-15.53 19.17,-26.61 37.6,-33.24l146 -51.87zm80.56 304.16c3.08,-16 2.63,-32.82 -1.37,-50.43 -4,-17.62 -10.17,-34.78 -18.52,-51.49 -8.35,-16.7 -18.21,-32.54 -29.58,-47.51 -11.37,-14.96 -22.95,-27.99 -34.74,-39.08 -8.83,-8.65 -17.85,-16.36 -27.05,-23.12l4.7 247.34c11.23,5.16 22.62,8.62 34.17,10.37 11.56,1.75 22.24,1.42 32.02,-1.01 9.79,-2.43 18.33,-7.25 25.62,-14.47 7.28,-7.22 12.13,-17.61 14.53,-31.18l0.21 0.58zm-135.17 -226.03c-3.14,-1.5 -6.02,-2.98 -8.62,-4.45 -2.61,-1.47 -5.42,-2.76 -8.42,-3.87 -17.97,-7.99 -34.19,-12.23 -48.67,-12.72 -14.48,-0.48 -26.71,2.38 -36.7,8.61 -9.98,6.22 -17.27,15.63 -21.85,28.22 -4.57,12.6 -5.7,27.9 -3.38,45.9 2.18,17.62 7.22,35.62 15.15,54.02 7.92,18.4 17.87,35.95 29.87,52.66 11.99,16.71 25.5,32.22 40.54,46.52 15.03,14.31 30.74,26.17 47.14,35.61l-5.27 -251.08 0.21 0.58zm434.24 -285.86l59.08 29.75 0.58 -0.45 64.07 31.32 161.7 82.62 9.97 5.52 -2.48 -11.43 -55.63 -235 -13.19 -55.77 -4.59 -20.02 86.42 -68.29 3.83 4.85 -13.25 10.47c-6.15,4.86 -9.92,10.73 -11.34,17.63 -1.42,6.9 -0.08,12.93 4.02,18.1l230.78 292.01c4.09,5.18 9.65,7.87 16.69,8.09 7.03,0.22 13.63,-2.1 19.77,-6.95l13.25 -10.47 3.83 4.85 -127.32 100.62 -3.83 -4.85 13.25 -10.47c6.14,-4.85 9.92,-10.73 11.33,-17.63 1.41,-6.9 0.08,-12.93 -4.01,-18.1l-208.17 -263.4 73.02 305.58 0.38 2.85 17.97 74.84 -69.25 -34.32 -2.69 -1.03 0.58 -0.46 -5.76 -2.55 -275.44 -137.72 208.17 263.4c4.09,5.17 9.65,7.87 16.69,8.09 7.03,0.22 13.62,-2.1 19.77,-6.96l13.25 -10.48 3.83 4.85 -85.26 67.39 -3.84 -4.85 13.25 -10.47c6.15,-4.86 9.93,-10.73 11.34,-17.63 1.41,-6.9 0.08,-12.93 -4.01,-18.11l-230.79 -292.01c-4.09,-5.18 -9.65,-7.87 -16.69,-8.09 -7.03,-0.22 -13.62,2.1 -19.77,6.96l-13.25 10.47 -3.83 -4.85 97.56 -77.89zm401.16 -403.36l6.33 1.75 389.3 113.78c14.9,3.89 26.42,3.45 34.55,-1.3 8.13,-4.76 15.73,-11.83 22.83,-21.2l5.06 3.55 -99.63 141.79 -5.06 -3.55c4.22,-6.01 7.67,-11.82 10.34,-17.41 2.68,-5.6 3.06,-12.06 1.15,-19.38 -2.41,-9.47 -8.17,-15.61 -17.28,-18.42l-64.35 -19.18c5.22,16.23 6.72,31.49 4.49,45.78 -2.23,14.29 -7.36,27.14 -15.38,38.55 -8.02,11.42 -18.47,21.27 -31.35,29.57 -12.89,8.3 -27.03,14.81 -42.44,19.53l-20 4.8 43.65 59.39c2.87,3.81 6.06,6.8 9.57,8.97 3.52,2.17 7.78,2.92 12.78,2.25 6.92,-0.52 12.57,-2.83 16.96,-6.93 4.39,-4.1 8.56,-8.95 12.49,-14.56l5.06 3.55 -63.74 90.73 -5.06 -3.55c5.85,-9.05 9.32,-18.28 10.39,-27.7 1.07,-9.42 -2.91,-20.6 -11.96,-33.53l-54.44 -74.15c-17.55,2.03 -36.3,2.02 -56.26,-0.04 -19.96,-2.06 -40.34,-6.21 -61.15,-12.45 -22.15,-7.18 -43.25,-16.77 -63.29,-28.76 -20.04,-11.98 -36.64,-25.29 -49.79,-39.91 -13.15,-14.62 -21.47,-30.2 -24.98,-46.72 -3.5,-16.52 0.37,-32.79 11.63,-48.81l89.58 -126.43zm240.87 202.44c-6.69,-14.87 -16.73,-28.35 -30.13,-40.47 -13.41,-12.11 -28.33,-22.6 -44.77,-31.46 -16.44,-8.86 -33.62,-16.14 -51.53,-21.84 -17.9,-5.7 -34.87,-9.69 -50.89,-11.98 -12.2,-1.99 -24.02,-3.11 -35.43,-3.35l146.14 199.61c12.15,-2.23 23.46,-5.96 33.91,-11.17 10.47,-5.21 19,-11.63 25.62,-19.25 6.61,-7.62 10.82,-16.48 12.63,-26.58 1.8,-10.1 -0.21,-21.39 -6.05,-33.87l0.51 0.36zm-240.59 -107.12c-3.43,0.58 -6.63,1.02 -9.62,1.32 -2.98,0.3 -6.02,0.86 -9.11,1.68 -19.29,3.8 -35,9.66 -47.12,17.6 -12.12,7.93 -20.48,17.32 -25.07,28.15 -4.59,10.83 -5.13,22.72 -1.63,35.65 3.51,12.93 11.39,26.1 23.64,39.49 11.92,13.15 26.4,24.98 43.46,35.47 17.06,10.49 35.3,19.12 54.72,25.89 19.43,6.77 39.4,11.68 59.93,14.73 20.52,3.05 40.2,3.72 59.04,2l-148.75 -202.34 0.51 0.36zm253.32 -84.72c-27.33,-13.54 -50.72,-30.87 -70.16,-51.97 -19.45,-21.1 -34.32,-43.77 -44.62,-68 -10.31,-24.22 -15.63,-48.99 -15.97,-74.29 -0.35,-25.3 5.02,-49.14 16.11,-71.51 9.13,-18.42 21.09,-33.53 35.9,-45.31 14.81,-11.78 30.53,-19.84 47.16,-24.17 16.63,-4.32 33.16,-4.47 49.56,-0.44 16.4,4.03 30.95,12.73 43.63,26.13 9.5,9.62 16.32,20.92 20.47,33.9 1.28,3.91 2.27,7.96 2.97,12.12 -44.04,-4.88 -80.77,-4.1 -110.19,2.36 -29.42,6.46 -51.71,16.17 -66.87,29.15 -15.17,12.97 -23.33,28.05 -24.49,45.24 -1.16,17.18 4.57,33.95 17.17,50.3 12.6,16.35 31.81,31.2 57.63,44.54 25.82,13.34 58.25,22.85 97.29,28.54 27.92,4 54.84,4.91 80.76,2.73 25.92,-2.18 49.29,-6.86 70.09,-14.03 20.8,-7.17 38.06,-16.24 51.77,-27.2 13.71,-10.96 22.31,-23.22 25.82,-36.79 2.78,-11.19 1.62,-23.24 -3.48,-36.14 -12.45,7.49 -22.78,17.67 -30.99,30.53l-118.56 -58.74c-5.54,-2.74 -11.39,-2.77 -17.55,-0.09 -6.17,2.69 -10.87,7.32 -14.13,13.9l-29.34 59.22 -5.54 -2.75 84.44 -170.42 5.54 2.75c-2.3,6.51 -2.59,12.65 -0.85,18.43 1.73,5.78 5.19,9.95 10.36,12.51l171.75 85.09 -1.31 2.63c-14.97,-4.14 -29.97,-3.1 -45,3.1l3.55 16.51c3.21,15.8 4.12,31.13 2.73,46.01 -1.39,14.88 -6.11,30.44 -14.15,46.67 -11.08,22.37 -26.8,41.09 -47.13,56.14 -20.34,15.05 -43.27,25.82 -68.79,32.3 -25.52,6.48 -52.57,8.38 -81.14,5.69 -28.57,-2.68 -56.53,-10.8 -83.86,-24.34l-0.55 -0.28zm352.64 -366.85c6.29,1.96 12.41,1.04 18.34,-2.75 5.93,-3.79 10.05,-9.43 12.38,-16.91l5.02 -16.12 5.91 1.84 -48.23 154.95 -5.9 -1.84 5.02 -16.12c2.33,-7.48 2.13,-14.46 -0.6,-20.95 -2.73,-6.49 -7.24,-10.72 -13.53,-12.67l-355.38 -110.61c-6.3,-1.96 -12.41,-1.05 -18.34,2.75 -5.93,3.8 -10.05,9.43 -12.38,16.91l-5.02 16.12 -5.9 -1.83 48.23 -154.95 5.9 1.84 -5.02 16.12c-2.33,7.48 -2.13,14.47 0.6,20.95 2.73,6.49 7.24,10.72 13.54,12.68l355.38 110.61zm-345.15 -339.75l6.35 -1.68 393.48 -98.37c14.82,-4.17 24.54,-10.36 29.16,-18.57 4.62,-8.21 7.61,-18.16 9,-29.83l6.16 0.52 -14.39 172.7 -6.16 -0.51c0.61,-7.32 0.65,-14.07 0.13,-20.25 -0.52,-6.18 -3.45,-11.95 -8.8,-17.31 -6.87,-6.96 -14.94,-9.35 -24.22,-7.18l-65.23 15.93c12.7,11.37 21.7,23.79 26.99,37.25 5.29,13.46 7.35,27.14 6.2,41.04 -1.16,13.9 -5.2,27.69 -12.13,41.36 -6.93,13.67 -15.85,26.44 -26.77,38.3l-14.83 14.24 67.67 29.22c4.4,1.84 8.66,2.81 12.79,2.91 4.12,0.1 8.18,-1.41 12.16,-4.52 5.7,-3.94 9.42,-8.79 11.14,-14.54 1.72,-5.75 2.87,-12.05 3.43,-18.87l6.16 0.51 -9.21 110.5 -6.16 -0.52c0.48,-10.77 -1.19,-20.48 -5.02,-29.15 -3.83,-8.67 -12.92,-16.3 -27.25,-22.9l-84.43 -36.51c-14.12,10.62 -30.31,20.07 -48.59,28.37 -18.27,8.3 -37.96,15.01 -59.07,20.13 -22.75,4.98 -45.8,7.36 -69.15,7.13 -23.35,-0.22 -44.39,-3.33 -63.13,-9.31 -18.73,-5.98 -33.78,-15.22 -45.15,-27.71 -11.37,-12.49 -16.23,-28.49 -14.61,-48l13.48 -154.36zm310.13 53.11c-13.28,-9.45 -28.76,-16.03 -46.44,-19.71 -17.69,-3.68 -35.87,-5.2 -54.54,-4.55 -18.67,0.66 -37.17,3.05 -55.5,7.17 -18.33,4.12 -35,9.24 -49.98,15.36 -11.54,4.44 -22.3,9.44 -32.27,14.99l226.93 98.5c9.35,-8.07 17.23,-16.99 23.64,-26.77 6.4,-9.78 10.53,-19.63 12.39,-29.55 1.86,-9.92 1.02,-19.69 -2.52,-29.32 -3.54,-9.63 -10.98,-18.35 -22.33,-26.18l0.62 0.05zm-261.76 29.03c-2.67,2.23 -5.21,4.23 -7.63,6 -2.42,1.76 -4.76,3.78 -7.02,6.04 -14.73,13.02 -25.33,26.02 -31.79,38.99 -6.46,12.97 -8.93,25.29 -7.42,36.96 1.51,11.67 7.04,22.2 16.6,31.6 9.56,9.39 23,16.77 40.34,22.15 16.93,5.34 35.4,8.23 55.43,8.67 20.02,0.44 40.12,-1.32 60.31,-5.29 20.18,-3.97 39.9,-9.81 59.15,-17.55 19.26,-7.73 36.58,-17.09 51.98,-28.09l-230.57 -99.54 0.62 0.05z"/>
  </g>
 </g>
</svg>
