<svg width="21" height="21" viewBox="0 0 21 21" fill="none" xmlns="http://www.w3.org/2000/svg">
<path d="M10.9316 12.2466V9.51413H20.1391C20.2291 9.98996 20.2757 10.5533 20.2757 11.1633C20.2757 13.2133 19.7157 15.7483 17.9091 17.5541C16.1524 19.3833 13.9082 20.3591 10.9349 20.3591C5.42323 20.3591 0.789062 15.87 0.789062 10.3591C0.789062 4.8483 5.42323 0.359131 10.9349 0.359131C13.9841 0.359131 16.1557 1.5558 17.7874 3.11496L15.8591 5.04246C14.6891 3.94496 13.1032 3.09163 10.9316 3.09163C6.9074 3.09163 3.7599 6.33496 3.7599 10.3591C3.7599 14.3833 6.9074 17.6266 10.9316 17.6266C13.5416 17.6266 15.0282 16.5783 15.9807 15.6258C16.7532 14.8533 17.2616 13.75 17.4616 12.2433L10.9316 12.2466Z" fill="#33005F"/>
</svg>
